<?xml version="1.0" encoding="UTF-8"?>
<svg width="19.8mm" height="24.5mm" version="1.1" viewBox="0 0 19.8 24.5" xml:space="preserve" xmlns="http://www.w3.org/2000/svg"><path d="m7.96 22.7c-3.43 0-6.16-2.73-6.16-6.2 0-2.33 1.22-4.33 3.06-5.39l-0.161-1.88c-2.78 1.22-4.69 4-4.69 7.26 0 4.45 3.51 7.96 7.96 7.96 3.26 0 6-1.88 7.26-4.65l-1.3-1.71c-0.695 2.65-3.06 4.61-5.96 4.61m7.26-9.47c-0.286-0.407-0.733-0.652-1.26-0.652h-3.8l-0.531-5.63c-0.286-2.81-4.37-2.37-4.08 0.45l0.612 6.24c0.121 1.14 1.1 2.04 2.24 2.04h5.1l4.2 5.71 2.08-1.55zm-7.8-9.02c1.18 0 2.12-0.938 2.12-2.12 0-1.18-0.939-2.12-2.12-2.12-1.19 0-2.12 0.938-2.12 2.12 0 1.18 0.938 2.12 2.12 2.12" fill="#fff"/></svg>
