<?xml version="1.0" encoding="UTF-8"?>
<svg width="2.6mm" height="2.91mm" version="1.1" viewBox="0 0 2.6 2.91" xmlns="http://www.w3.org/2000/svg"><path d="m1.22 0v0.45l-0.274-0.159-0.0767 0.133 0.351 0.203v0.696l-0.603-0.348v-0.405h-0.153v0.317l-0.389-0.225-0.0767 0.133 0.389 0.225-0.274 0.159 0.0767 0.132 0.351-0.203 0.603 0.348-0.603 0.348-0.351-0.203-0.0767 0.132 0.274 0.159-0.389 0.225 0.0767 0.133 0.389-0.225v0.317h0.153v-0.405l0.603-0.348v0.696l-0.351 0.203 0.0767 0.133 0.274-0.159v0.449h0.153v-0.449l0.274 0.159 0.0767-0.133-0.351-0.203v-0.696l0.603 0.348v0.406h0.153v-0.317l0.389 0.225 0.0764-0.133-0.389-0.225 0.274-0.158-0.0767-0.133-0.351 0.203-0.603-0.348 0.603-0.348 0.351 0.203 0.0764-0.133-0.274-0.159 0.389-0.225-0.0764-0.133-0.389 0.225v-0.317h-0.153v0.405l-0.603 0.348v-0.696l0.351-0.203-0.0767-0.133-0.274 0.159v-0.45z" fill="#fff"/></svg>
